<svg width="21" height="20" viewBox="0 0 21 20" fill="none" xmlns="http://www.w3.org/2000/svg">
<path d="M18.3571 4.28402V8.56974M18.3571 8.56974H14.0714M18.3571 8.56974L15.0428 5.45545C14.2751 4.68739 13.3254 4.12631 12.2822 3.82457C11.2391 3.52284 10.1365 3.49027 9.07731 3.72992C8.01815 3.96957 7.03697 4.47362 6.2253 5.19504C5.41363 5.91645 4.79794 6.83173 4.43568 7.85545M2.64282 15.7126V11.4269M2.64282 11.4269H6.92854M2.64282 11.4269L5.95711 14.5412C6.72478 15.3092 7.67452 15.8703 8.71769 16.172C9.76085 16.4738 10.8635 16.5063 11.9226 16.2667C12.9818 16.027 13.963 15.523 14.7746 14.8016C15.5863 14.0802 16.202 13.1649 16.5643 12.1412" stroke="#999999" stroke-linecap="round" stroke-linejoin="round"/>
</svg>
